<svg width="20" height="20" viewBox="0 0 20 20" fill="none" xmlns="http://www.w3.org/2000/svg">
<g clip-path="url(#clip0_3001_27903)">
<path d="M10.0002 13.3327C5.20026 13.3327 4.34994 8.54897 4.19931 4.75474C4.1574 3.69933 4.13645 3.17162 4.53289 2.68338C4.92932 2.19513 5.40379 2.11508 6.35273 1.95497C7.28945 1.79692 8.51392 1.66602 10.0002 1.66602C11.4865 1.66602 12.711 1.79692 13.6477 1.95497C14.5966 2.11508 15.0711 2.19513 15.4675 2.68338C15.864 3.17162 15.843 3.69933 15.8011 4.75474C15.6505 8.54897 14.8002 13.3327 10.0002 13.3327Z" stroke="white" stroke-width="1.5"/>
<path d="M10 13.334V15.834" stroke="white" stroke-width="1.5" stroke-linecap="round"/>
<path d="M12.9173 18.3333H7.08398L7.36667 16.9199C7.44457 16.5304 7.78659 16.25 8.18382 16.25H11.8175C12.2147 16.25 12.5567 16.5304 12.6346 16.9199L12.9173 18.3333Z" stroke="white" stroke-width="1.5" stroke-linecap="round" stroke-linejoin="round"/>
<path d="M15.834 4.16602L16.6245 4.42952C17.4496 4.70454 17.8621 4.84205 18.098 5.16942C18.334 5.49679 18.334 5.93162 18.3339 6.8013L18.3339 6.86174C18.3339 7.57902 18.3339 7.93767 18.1612 8.23109C17.9886 8.52452 17.6751 8.6987 17.0481 9.04705L14.584 10.416" stroke="white" stroke-width="1.5"/>
<path d="M4.16597 4.16602L3.37545 4.42952C2.5504 4.70454 2.13788 4.84205 1.90193 5.16942C1.66598 5.49679 1.66599 5.93162 1.66602 6.8013L1.66602 6.86174C1.66604 7.57902 1.66605 7.93767 1.8387 8.23109C2.01136 8.52452 2.32487 8.6987 2.95189 9.04705L5.41597 10.416" stroke="white" stroke-width="1.5"/>
<path d="M9.28829 5.01811C9.60495 4.45005 9.76328 4.16602 10 4.16602C10.2367 4.16602 10.395 4.45005 10.7117 5.01811L10.7936 5.16507C10.8836 5.3265 10.9286 5.40721 10.9988 5.46047C11.0689 5.51372 11.1563 5.53349 11.331 5.57303L11.4901 5.60902C12.105 5.74815 12.4125 5.81772 12.4856 6.05295C12.5588 6.28818 12.3492 6.53328 11.93 7.0235L11.8215 7.15032C11.7024 7.28962 11.6428 7.35928 11.616 7.44544C11.5892 7.53161 11.5982 7.62454 11.6163 7.8104L11.6327 7.97961C11.696 8.63367 11.7277 8.96069 11.5362 9.10607C11.3447 9.25145 11.0568 9.1189 10.4811 8.85381L10.3321 8.78522C10.1685 8.70989 10.0867 8.67223 10 8.67223C9.91329 8.67223 9.83148 8.70989 9.66787 8.78522L9.51892 8.85381C8.94317 9.1189 8.65529 9.25145 8.46379 9.10607C8.27228 8.96069 8.30397 8.63367 8.36735 7.97962L8.38375 7.8104C8.40176 7.62454 8.41076 7.53161 8.38397 7.44544C8.35717 7.35928 8.29761 7.28962 8.17848 7.15032L8.07002 7.0235C7.65081 6.53328 7.44121 6.28818 7.51436 6.05295C7.5875 5.81772 7.89496 5.74815 8.50988 5.60902L8.66897 5.57303C8.84371 5.53349 8.93108 5.51372 9.00124 5.46047C9.07139 5.40721 9.11638 5.3265 9.20637 5.16507L9.28829 5.01811Z" stroke="white" stroke-width="1.5"/>
<path d="M15 18.334H5" stroke="white" stroke-width="1.5" stroke-linecap="round"/>
</g>
<defs>
<clipPath id="clip0_3001_27903">
<rect width="20" height="20" fill="white"/>
</clipPath>
</defs>
</svg>
